<svg xmlns="http://www.w3.org/2000/svg" xmlns:xlink="http://www.w3.org/1999/xlink" width="500" zoomAndPan="magnify" viewBox="0 0 375 374.999991" height="500" preserveAspectRatio="xMidYMid meet" version="1.0"><defs><g/><clipPath id="6acb560e51"><path d="M 188 98.621094 L 211 98.621094 L 211 121 L 188 121 Z M 188 98.621094 " clip-rule="nonzero"/></clipPath><clipPath id="fdb1e8540f"><path d="M 164 98.621094 L 187 98.621094 L 187 121 L 164 121 Z M 164 98.621094 " clip-rule="nonzero"/></clipPath><clipPath id="abb368ba30"><path d="M 132.792969 129 L 153 129 L 153 155 L 132.792969 155 Z M 132.792969 129 " clip-rule="nonzero"/></clipPath><clipPath id="098cba713a"><path d="M 132.792969 161 L 153 161 L 153 186 L 132.792969 186 Z M 132.792969 161 " clip-rule="nonzero"/></clipPath><clipPath id="522b19e651"><path d="M 164 195 L 187 195 L 187 217.121094 L 164 217.121094 Z M 164 195 " clip-rule="nonzero"/></clipPath><clipPath id="411ed7a588"><path d="M 188 195 L 211 195 L 211 217.121094 L 188 217.121094 Z M 188 195 " clip-rule="nonzero"/></clipPath><clipPath id="2f57c9ebaa"><path d="M 222 161 L 242.292969 161 L 242.292969 186 L 222 186 Z M 222 161 " clip-rule="nonzero"/></clipPath><clipPath id="c35495aadd"><path d="M 222 129 L 242.292969 129 L 242.292969 155 L 222 155 Z M 222 129 " clip-rule="nonzero"/></clipPath><clipPath id="19990c7f9b"><path d="M 227 98.621094 L 242.292969 98.621094 L 242.292969 117 L 227 117 Z M 227 98.621094 " clip-rule="nonzero"/></clipPath></defs><path fill="#1190cf" d="M 186.699219 151.335938 L 186.699219 128.832031 C 186.03125 128.730469 185.371094 128.503906 184.753906 128.148438 C 184.078125 127.761719 183.519531 127.257812 183.082031 126.671875 C 179.683594 128.523438 176.261719 130.441406 172.824219 132.421875 C 169.386719 134.40625 166.011719 136.402344 162.707031 138.414062 C 163.265625 139.726562 163.316406 141.238281 162.773438 142.621094 L 182.296875 153.875 C 183.390625 152.441406 184.992188 151.558594 186.699219 151.335938 Z M 186.699219 151.335938 " fill-opacity="1" fill-rule="evenodd"/><path fill="#1190cf" d="M 188.390625 128.832031 L 188.390625 151.335938 C 189.230469 151.445312 190.066406 151.714844 190.84375 152.164062 C 191.625 152.617188 192.277344 153.203125 192.792969 153.875 L 212.316406 142.621094 C 211.800781 141.296875 211.792969 139.789062 212.378906 138.417969 C 209.074219 136.40625 205.699219 134.40625 202.261719 132.425781 C 198.824219 130.445312 195.40625 128.527344 192.007812 126.675781 C 191.109375 127.867188 189.796875 128.613281 188.390625 128.832031 Z M 188.390625 128.832031 " fill-opacity="1" fill-rule="evenodd"/><path fill="#077aba" d="M 181.453125 155.332031 L 161.929688 144.082031 C 161 145.246094 159.664062 145.957031 158.246094 146.128906 C 158.152344 149.996094 158.105469 153.910156 158.105469 157.875 C 158.105469 161.835938 158.152344 165.75 158.246094 169.613281 C 158.96875 169.703125 159.691406 169.933594 160.359375 170.320312 C 160.980469 170.675781 161.507812 171.136719 161.929688 171.664062 L 181.453125 160.410156 C 180.792969 158.824219 180.753906 156.996094 181.453125 155.332031 Z M 181.453125 155.332031 " fill-opacity="1" fill-rule="evenodd"/><path fill="#085c9c" d="M 182.296875 161.871094 L 162.773438 173.125 C 163.289062 174.445312 163.296875 175.953125 162.710938 177.328125 C 166.015625 179.339844 169.390625 181.339844 172.828125 183.320312 C 176.261719 185.300781 179.683594 187.21875 183.082031 189.070312 C 183.980469 187.878906 185.292969 187.128906 186.699219 186.914062 L 186.703125 164.410156 C 185.859375 164.300781 185.023438 164.027344 184.246094 163.578125 C 183.464844 163.128906 182.8125 162.542969 182.296875 161.871094 Z M 182.296875 161.871094 " fill-opacity="1" fill-rule="evenodd"/><path fill="#085c9c" d="M 188.390625 164.40625 L 188.390625 186.914062 C 189.058594 187.015625 189.71875 187.238281 190.335938 187.597656 C 191.007812 187.984375 191.570312 188.488281 192.007812 189.070312 C 195.40625 187.222656 198.828125 185.304688 202.261719 183.324219 L 202.3125 183.296875 C 205.734375 181.324219 209.089844 179.332031 212.382812 177.332031 C 211.824219 176.019531 211.773438 174.507812 212.316406 173.121094 L 192.792969 161.867188 C 191.699219 163.304688 190.097656 164.183594 188.390625 164.40625 Z M 188.390625 164.40625 " fill-opacity="1" fill-rule="evenodd"/><path fill="#077aba" d="M 193.636719 160.410156 L 213.160156 171.664062 C 214.089844 170.5 215.425781 169.789062 216.84375 169.613281 C 216.9375 165.75 216.984375 161.835938 216.984375 157.875 C 216.984375 153.910156 216.9375 149.996094 216.84375 146.132812 C 216.117188 146.042969 215.398438 145.8125 214.726562 145.425781 C 214.109375 145.066406 213.582031 144.609375 213.160156 144.082031 L 193.636719 155.335938 C 194.296875 156.921875 194.335938 158.75 193.636719 160.410156 Z M 193.636719 160.410156 " fill-opacity="1" fill-rule="evenodd"/><g clip-path="url(#6acb560e51)"><path fill="#8ad7f8" d="M 192.046875 120.015625 C 198.386719 116.753906 204.617188 113.738281 210.671875 110.980469 C 210.332031 110.042969 210.285156 109.035156 210.582031 108.097656 C 204.246094 104.601562 197.910156 101.441406 191.632812 98.625 C 190.863281 99.554688 189.714844 100.214844 188.386719 100.414062 L 188.390625 117.804688 C 189.058594 117.910156 189.71875 118.132812 190.335938 118.492188 C 191.03125 118.890625 191.601562 119.414062 192.046875 120.015625 Z M 192.046875 120.015625 " fill-opacity="1" fill-rule="evenodd"/></g><g clip-path="url(#fdb1e8540f)"><path fill="#8ad7f8" d="M 186.699219 117.808594 L 186.699219 100.414062 C 185.375 100.214844 184.222656 99.554688 183.457031 98.621094 C 177.175781 101.441406 170.839844 104.601562 164.507812 108.097656 C 164.804688 109.03125 164.757812 110.039062 164.417969 110.976562 C 170.472656 113.734375 176.703125 116.753906 183.042969 120.015625 C 183.941406 118.792969 185.273438 118.027344 186.699219 117.808594 Z M 186.699219 117.808594 " fill-opacity="1" fill-rule="evenodd"/></g><path fill="#34abe2" d="M 182.257812 121.511719 C 175.898438 118.238281 169.648438 115.210938 163.578125 112.449219 C 163.164062 112.960938 162.644531 113.410156 162.03125 113.761719 C 161.421875 114.117188 160.769531 114.339844 160.121094 114.441406 C 159.480469 121.074219 158.980469 127.984375 158.640625 135.121094 C 159.230469 135.238281 159.8125 135.449219 160.359375 135.765625 C 160.929688 136.09375 161.421875 136.507812 161.824219 136.980469 C 165.140625 134.960938 168.527344 132.953125 171.980469 130.960938 C 175.433594 128.972656 178.871094 127.046875 182.28125 125.1875 C 181.867188 124.023438 181.839844 122.726562 182.257812 121.511719 Z M 182.257812 121.511719 " fill-opacity="1" fill-rule="evenodd"/><path fill="#34abe2" d="M 156.957031 135.054688 C 157.296875 127.941406 157.792969 121.046875 158.429688 114.429688 C 157.441406 114.257812 156.542969 113.792969 155.878906 113.066406 C 149.683594 116.785156 143.773438 120.683594 138.183594 124.707031 C 138.613281 125.835938 138.609375 127.167969 138.121094 128.414062 L 153.207031 137.109375 C 154.152344 135.929688 155.515625 135.214844 156.957031 135.054688 Z M 156.957031 135.054688 " fill-opacity="1" fill-rule="evenodd"/><g clip-path="url(#abb368ba30)"><path fill="#1190cf" d="M 152.363281 138.566406 L 137.277344 129.871094 C 136.441406 130.917969 135.289062 131.585938 134.097656 131.78125 C 133.402344 138.621094 132.976562 145.675781 132.84375 152.898438 C 133.804688 153.109375 134.65625 153.65625 135.300781 154.421875 C 140.71875 150.5625 146.453125 146.6875 152.453125 142.835938 C 151.871094 141.511719 151.8125 139.976562 152.363281 138.566406 Z M 152.363281 138.566406 " fill-opacity="1" fill-rule="evenodd"/></g><path fill="#077aba" d="M 153.355469 144.261719 C 147.335938 148.125 141.589844 152.011719 136.15625 155.878906 C 136.390625 156.492188 136.523438 157.164062 136.523438 157.871094 C 136.523438 158.578125 136.390625 159.253906 136.15625 159.863281 C 141.589844 163.730469 147.335938 167.621094 153.359375 171.484375 C 154.203125 170.511719 155.34375 169.890625 156.558594 169.664062 C 156.46875 165.785156 156.417969 161.851562 156.417969 157.871094 C 156.417969 153.894531 156.46875 149.960938 156.5625 146.082031 C 155.949219 145.96875 155.34375 145.753906 154.777344 145.425781 C 154.226562 145.109375 153.75 144.714844 153.355469 144.261719 Z M 153.355469 144.261719 " fill-opacity="1" fill-rule="evenodd"/><g clip-path="url(#098cba713a)"><path fill="#085c9c" d="M 152.453125 172.910156 C 146.449219 169.058594 140.71875 165.183594 135.296875 161.324219 C 134.65625 162.089844 133.804688 162.636719 132.84375 162.84375 C 132.976562 170.066406 133.402344 177.125 134.097656 183.964844 C 135.289062 184.160156 136.441406 184.824219 137.277344 185.871094 L 152.363281 177.175781 C 151.839844 175.832031 151.839844 174.300781 152.453125 172.910156 Z M 152.453125 172.910156 " fill-opacity="1" fill-rule="evenodd"/></g><path fill="#2e365e" d="M 153.207031 178.636719 L 138.121094 187.332031 C 138.609375 188.578125 138.613281 189.902344 138.1875 191.03125 C 143.773438 195.050781 149.683594 198.945312 155.882812 202.675781 C 156.542969 201.949219 157.445312 201.488281 158.429688 201.3125 C 157.792969 194.699219 157.296875 187.804688 156.957031 180.691406 C 156.210938 180.613281 155.46875 180.378906 154.773438 179.976562 C 154.15625 179.621094 153.628906 179.164062 153.207031 178.636719 Z M 153.207031 178.636719 " fill-opacity="1" fill-rule="evenodd"/><path fill="#2e365e" d="M 158.640625 180.621094 C 158.980469 187.757812 159.480469 194.671875 160.121094 201.304688 C 160.769531 201.402344 161.421875 201.628906 162.035156 201.980469 C 162.648438 202.335938 163.164062 202.785156 163.578125 203.296875 C 169.652344 200.535156 175.898438 197.507812 182.261719 194.234375 C 181.859375 193.066406 181.847656 191.769531 182.28125 190.558594 C 178.867188 188.699219 175.429688 186.773438 171.980469 184.785156 C 168.527344 182.796875 165.140625 180.789062 161.820312 178.765625 C 160.984375 179.746094 159.855469 180.382812 158.640625 180.621094 Z M 158.640625 180.621094 " fill-opacity="1" fill-rule="evenodd"/><g clip-path="url(#522b19e651)"><path fill="#0c0a28" d="M 183.042969 195.726562 C 176.703125 198.992188 170.472656 202.007812 164.417969 204.765625 C 164.757812 205.703125 164.804688 206.710938 164.507812 207.648438 C 170.84375 211.140625 177.179688 214.300781 183.460938 217.121094 C 184.222656 216.191406 185.375 215.53125 186.699219 215.328125 L 186.699219 197.9375 C 186.03125 197.839844 185.371094 197.613281 184.75 197.253906 C 184.058594 196.855469 183.488281 196.332031 183.042969 195.726562 Z M 183.042969 195.726562 " fill-opacity="1" fill-rule="evenodd"/></g><g clip-path="url(#411ed7a588)"><path fill="#0c0a28" d="M 188.390625 197.9375 L 188.390625 215.332031 C 189.714844 215.53125 190.867188 216.191406 191.632812 217.125 C 197.910156 214.304688 204.25 211.144531 210.582031 207.648438 C 210.285156 206.714844 210.332031 205.703125 210.671875 204.765625 C 204.613281 202.011719 198.386719 198.992188 192.046875 195.726562 C 191.144531 196.953125 189.816406 197.71875 188.390625 197.9375 Z M 188.390625 197.9375 " fill-opacity="1" fill-rule="evenodd"/></g><path fill="#2e365e" d="M 192.828125 194.230469 C 199.191406 197.507812 205.441406 200.53125 211.511719 203.292969 C 211.925781 202.785156 212.441406 202.335938 213.054688 201.980469 C 213.667969 201.628906 214.320312 201.40625 214.96875 201.304688 C 215.609375 194.671875 216.105469 187.757812 216.449219 180.621094 C 215.859375 180.507812 215.277344 180.296875 214.726562 179.976562 C 214.160156 179.648438 213.667969 179.234375 213.265625 178.761719 C 209.949219 180.785156 206.558594 182.792969 203.105469 184.785156 L 203.0625 184.808594 C 199.625 186.789062 196.203125 188.707031 192.804688 190.554688 C 193.222656 191.722656 193.25 193.015625 192.828125 194.230469 Z M 192.828125 194.230469 " fill-opacity="1" fill-rule="evenodd"/><path fill="#2e365e" d="M 218.132812 180.691406 C 217.792969 187.804688 217.296875 194.699219 216.660156 201.3125 C 217.648438 201.484375 218.546875 201.949219 219.210938 202.675781 C 225.40625 198.949219 231.316406 195.050781 236.902344 191.03125 C 236.476562 189.902344 236.480469 188.578125 236.96875 187.332031 L 221.882812 178.632812 C 220.9375 179.816406 219.574219 180.53125 218.132812 180.691406 Z M 218.132812 180.691406 " fill-opacity="1" fill-rule="evenodd"/><g clip-path="url(#2f57c9ebaa)"><path fill="#085c9c" d="M 222.726562 177.175781 L 237.8125 185.871094 C 238.648438 184.824219 239.800781 184.160156 240.992188 183.964844 C 241.683594 177.125 242.113281 170.066406 242.246094 162.84375 C 241.285156 162.632812 240.433594 162.089844 239.789062 161.324219 C 234.371094 165.183594 228.636719 169.058594 222.636719 172.90625 C 223.21875 174.234375 223.277344 175.769531 222.726562 177.175781 Z M 222.726562 177.175781 " fill-opacity="1" fill-rule="evenodd"/></g><path fill="#077aba" d="M 221.734375 171.484375 C 227.753906 167.621094 233.5 163.734375 238.933594 159.863281 C 238.699219 159.253906 238.566406 158.582031 238.566406 157.871094 C 238.566406 157.167969 238.699219 156.492188 238.933594 155.882812 C 233.5 152.011719 227.75 148.125 221.730469 144.261719 C 220.886719 145.230469 219.75 145.855469 218.53125 146.078125 C 218.625 149.960938 218.671875 153.894531 218.671875 157.875 C 218.671875 161.851562 218.621094 165.785156 218.527344 169.664062 C 219.140625 169.777344 219.746094 169.992188 220.3125 170.320312 C 220.863281 170.636719 221.335938 171.03125 221.734375 171.484375 Z M 221.734375 171.484375 " fill-opacity="1" fill-rule="evenodd"/><g clip-path="url(#c35495aadd)"><path fill="#1190cf" d="M 222.636719 142.835938 C 228.636719 146.6875 234.371094 150.5625 239.792969 154.417969 C 240.433594 153.65625 241.285156 153.109375 242.246094 152.902344 C 242.109375 145.679688 241.683594 138.621094 240.992188 131.78125 C 239.800781 131.585938 238.648438 130.917969 237.8125 129.871094 L 222.726562 138.570312 C 223.246094 139.914062 223.25 141.445312 222.636719 142.835938 Z M 222.636719 142.835938 " fill-opacity="1" fill-rule="evenodd"/></g><g clip-path="url(#19990c7f9b)"><path fill="#34abe2" d="M 231.035156 116.484375 L 242.246094 110.023438 C 241.882812 109.097656 241.878906 108.113281 242.195312 107.273438 C 238.046875 104.289062 233.65625 101.390625 229.050781 98.625 C 228.558594 99.160156 227.890625 99.503906 227.160156 99.632812 C 227.632812 104.550781 228 109.671875 228.253906 114.957031 C 228.808594 115.015625 229.355469 115.191406 229.871094 115.484375 C 230.332031 115.75 230.722656 116.09375 231.035156 116.484375 Z M 231.035156 116.484375 " fill-opacity="1" fill-rule="evenodd"/></g><path fill="#34abe2" d="M 205.234375 120 C 210.855469 117.105469 216.375 114.433594 221.742188 111.992188 C 222.105469 112.441406 222.566406 112.839844 223.105469 113.152344 C 223.648438 113.464844 224.222656 113.664062 224.796875 113.753906 C 225.363281 119.613281 225.804688 125.71875 226.105469 132.027344 C 225.582031 132.128906 225.070312 132.316406 224.585938 132.597656 C 224.082031 132.886719 223.648438 133.253906 223.292969 133.667969 C 220.359375 131.882812 217.367188 130.109375 214.316406 128.351562 C 211.265625 126.59375 208.230469 124.890625 205.210938 123.25 C 205.578125 122.21875 205.601562 121.074219 205.234375 120 Z M 205.234375 120 " fill-opacity="1" fill-rule="evenodd"/><g fill="#8c52ff" fill-opacity="1"><g transform="translate(120.39531, 252.254002)"><g><path d="M 9.015625 -19.734375 C 11.554688 -19.734375 13.84375 -19.0625 15.875 -17.71875 L 14.5 -14.8125 C 12.507812 -16.019531 10.597656 -16.625 8.765625 -16.625 C 7.773438 -16.625 6.992188 -16.445312 6.421875 -16.09375 C 5.859375 -15.738281 5.578125 -15.234375 5.578125 -14.578125 C 5.578125 -13.929688 5.835938 -13.378906 6.359375 -12.921875 C 6.878906 -12.460938 7.53125 -12.125 8.3125 -11.90625 C 9.09375 -11.695312 9.941406 -11.425781 10.859375 -11.09375 C 11.773438 -10.769531 12.625 -10.425781 13.40625 -10.0625 C 14.195312 -9.695312 14.847656 -9.128906 15.359375 -8.359375 C 15.867188 -7.585938 16.125 -6.648438 16.125 -5.546875 C 16.125 -3.828125 15.4375 -2.453125 14.0625 -1.421875 C 12.695312 -0.398438 10.921875 0.109375 8.734375 0.109375 C 7.242188 0.109375 5.796875 -0.164062 4.390625 -0.71875 C 2.992188 -1.28125 1.773438 -2.039062 0.734375 -3 L 2.15625 -5.859375 C 3.144531 -4.941406 4.234375 -4.234375 5.421875 -3.734375 C 6.609375 -3.242188 7.734375 -3 8.796875 -3 C 9.953125 -3 10.847656 -3.207031 11.484375 -3.625 C 12.128906 -4.039062 12.453125 -4.625 12.453125 -5.375 C 12.453125 -6.050781 12.191406 -6.613281 11.671875 -7.0625 C 11.148438 -7.519531 10.5 -7.859375 9.71875 -8.078125 C 8.9375 -8.296875 8.085938 -8.554688 7.171875 -8.859375 C 6.253906 -9.171875 5.398438 -9.5 4.609375 -9.84375 C 3.828125 -10.1875 3.175781 -10.738281 2.65625 -11.5 C 2.132812 -12.269531 1.875 -13.195312 1.875 -14.28125 C 1.875 -15.9375 2.523438 -17.257812 3.828125 -18.25 C 5.140625 -19.238281 6.867188 -19.734375 9.015625 -19.734375 Z M 9.015625 -19.734375 "/></g></g></g><g fill="#8c52ff" fill-opacity="1"><g transform="translate(139.208935, 252.254002)"><g><path d="M 10 -3.421875 L 10.8125 -0.953125 C 9.570312 -0.222656 8.34375 0.140625 7.125 0.140625 C 5.914062 0.140625 4.921875 -0.222656 4.140625 -0.953125 C 3.359375 -1.679688 2.96875 -2.765625 2.96875 -4.203125 L 2.96875 -11.921875 L 0.875 -11.921875 L 0.875 -14.34375 L 2.96875 -14.34375 L 2.96875 -18.421875 L 6.15625 -18.421875 L 6.15625 -14.34375 L 10.5625 -14.34375 L 10.5625 -11.921875 L 6.15625 -11.921875 L 6.15625 -4.78125 C 6.15625 -4.039062 6.285156 -3.519531 6.546875 -3.21875 C 6.804688 -2.914062 7.207031 -2.765625 7.75 -2.765625 C 8.351562 -2.765625 9.101562 -2.984375 10 -3.421875 Z M 10 -3.421875 "/></g></g></g><g fill="#8c52ff" fill-opacity="1"><g transform="translate(152.00338, 252.254002)"><g><path d="M 11.3125 0 L 11.3125 -1.8125 C 10.25 -0.507812 8.609375 0.140625 6.390625 0.140625 C 4.796875 0.140625 3.519531 -0.289062 2.5625 -1.15625 C 1.613281 -2.03125 1.140625 -3.140625 1.140625 -4.484375 C 1.140625 -5.847656 1.632812 -6.929688 2.625 -7.734375 C 3.613281 -8.535156 5 -8.941406 6.78125 -8.953125 L 11.28125 -8.953125 L 11.28125 -9.40625 C 11.28125 -10.363281 10.976562 -11.101562 10.375 -11.625 C 9.769531 -12.144531 8.890625 -12.40625 7.734375 -12.40625 C 6.296875 -12.40625 4.828125 -11.898438 3.328125 -10.890625 L 2.015625 -13.125 C 3.148438 -13.800781 4.171875 -14.285156 5.078125 -14.578125 C 5.984375 -14.867188 7.097656 -15.015625 8.421875 -15.015625 C 10.328125 -15.015625 11.800781 -14.550781 12.84375 -13.625 C 13.894531 -12.695312 14.429688 -11.410156 14.453125 -9.765625 L 14.46875 0 Z M 7.0625 -2.40625 C 8.195312 -2.40625 9.160156 -2.671875 9.953125 -3.203125 C 10.742188 -3.734375 11.1875 -4.410156 11.28125 -5.234375 L 11.28125 -6.609375 L 7.25 -6.609375 C 6.1875 -6.609375 5.40625 -6.453125 4.90625 -6.140625 C 4.414062 -5.835938 4.171875 -5.332031 4.171875 -4.625 C 4.171875 -3.945312 4.425781 -3.40625 4.9375 -3 C 5.457031 -2.601562 6.164062 -2.40625 7.0625 -2.40625 Z M 7.0625 -2.40625 "/></g></g></g><g fill="#8c52ff" fill-opacity="1"><g transform="translate(169.809133, 252.254002)"><g><path d="M 10 -3.421875 L 10.8125 -0.953125 C 9.570312 -0.222656 8.34375 0.140625 7.125 0.140625 C 5.914062 0.140625 4.921875 -0.222656 4.140625 -0.953125 C 3.359375 -1.679688 2.96875 -2.765625 2.96875 -4.203125 L 2.96875 -11.921875 L 0.875 -11.921875 L 0.875 -14.34375 L 2.96875 -14.34375 L 2.96875 -18.421875 L 6.15625 -18.421875 L 6.15625 -14.34375 L 10.5625 -14.34375 L 10.5625 -11.921875 L 6.15625 -11.921875 L 6.15625 -4.78125 C 6.15625 -4.039062 6.285156 -3.519531 6.546875 -3.21875 C 6.804688 -2.914062 7.207031 -2.765625 7.75 -2.765625 C 8.351562 -2.765625 9.101562 -2.984375 10 -3.421875 Z M 10 -3.421875 "/></g></g></g><g fill="#8c52ff" fill-opacity="1"><g transform="translate(182.603581, 252.254002)"><g><path d="M 6.828125 -15.03125 C 8.878906 -15.03125 10.617188 -14.53125 12.046875 -13.53125 L 10.859375 -11.140625 C 9.441406 -12.015625 8.015625 -12.453125 6.578125 -12.453125 C 5.117188 -12.453125 4.390625 -11.957031 4.390625 -10.96875 C 4.390625 -10.488281 4.660156 -10.085938 5.203125 -9.765625 C 5.742188 -9.453125 6.398438 -9.1875 7.171875 -8.96875 C 7.953125 -8.757812 8.726562 -8.507812 9.5 -8.21875 C 10.28125 -7.925781 10.941406 -7.453125 11.484375 -6.796875 C 12.023438 -6.148438 12.296875 -5.320312 12.296875 -4.3125 C 12.296875 -2.875 11.75 -1.773438 10.65625 -1.015625 C 9.5625 -0.265625 8.203125 0.109375 6.578125 0.109375 C 5.460938 0.109375 4.367188 -0.0703125 3.296875 -0.4375 C 2.222656 -0.800781 1.320312 -1.304688 0.59375 -1.953125 L 1.734375 -4.25 C 2.367188 -3.695312 3.144531 -3.25 4.0625 -2.90625 C 4.988281 -2.570312 5.875 -2.40625 6.71875 -2.40625 C 7.445312 -2.40625 8.035156 -2.535156 8.484375 -2.796875 C 8.929688 -3.054688 9.15625 -3.457031 9.15625 -4 C 9.15625 -4.5625 8.882812 -5.007812 8.34375 -5.34375 C 7.800781 -5.6875 7.144531 -5.957031 6.375 -6.15625 C 5.613281 -6.363281 4.847656 -6.609375 4.078125 -6.890625 C 3.316406 -7.171875 2.671875 -7.628906 2.140625 -8.265625 C 1.609375 -8.910156 1.34375 -9.726562 1.34375 -10.71875 C 1.34375 -12.144531 1.867188 -13.21875 2.921875 -13.9375 C 3.984375 -14.664062 5.285156 -15.03125 6.828125 -15.03125 Z M 6.828125 -15.03125 "/></g></g></g><g fill="#8c52ff" fill-opacity="1"><g transform="translate(197.161792, 252.254002)"><g/></g></g><g fill="#8c52ff" fill-opacity="1"><g transform="translate(205.784812, 252.254002)"><g><path d="M 16.71875 0.53125 L 13.65625 -2.46875 C 11.832031 -0.726562 9.863281 0.140625 7.75 0.140625 C 6 0.140625 4.535156 -0.378906 3.359375 -1.421875 C 2.179688 -2.472656 1.59375 -3.78125 1.59375 -5.34375 C 1.59375 -6.613281 1.96875 -7.660156 2.71875 -8.484375 C 3.46875 -9.304688 4.503906 -10.070312 5.828125 -10.78125 C 4.578125 -12.457031 3.953125 -13.96875 3.953125 -15.3125 C 3.953125 -16.625 4.421875 -17.6875 5.359375 -18.5 C 6.304688 -19.320312 7.535156 -19.734375 9.046875 -19.734375 C 10.503906 -19.734375 11.691406 -19.347656 12.609375 -18.578125 C 13.535156 -17.816406 14 -16.832031 14 -15.625 C 14 -14.988281 13.875 -14.398438 13.625 -13.859375 C 13.375 -13.316406 12.992188 -12.828125 12.484375 -12.390625 C 11.984375 -11.953125 11.5 -11.585938 11.03125 -11.296875 C 10.5625 -11.003906 9.960938 -10.664062 9.234375 -10.28125 C 10.171875 -9.21875 11.546875 -7.796875 13.359375 -6.015625 C 14.023438 -7.023438 14.613281 -8.203125 15.125 -9.546875 L 17.21875 -7.984375 C 16.601562 -6.503906 15.921875 -5.257812 15.171875 -4.25 L 18.375 -1.140625 Z M 6.5 -15.34375 C 6.5 -14.351562 6.984375 -13.195312 7.953125 -11.875 C 9.085938 -12.46875 9.953125 -13.039062 10.546875 -13.59375 C 11.148438 -14.144531 11.453125 -14.8125 11.453125 -15.59375 C 11.453125 -16.25 11.234375 -16.765625 10.796875 -17.140625 C 10.367188 -17.523438 9.796875 -17.71875 9.078125 -17.71875 C 8.304688 -17.71875 7.679688 -17.492188 7.203125 -17.046875 C 6.734375 -16.597656 6.5 -16.03125 6.5 -15.34375 Z M 7.875 -2.296875 C 9.25 -2.296875 10.59375 -2.929688 11.90625 -4.203125 C 9.675781 -6.421875 8.085938 -8.070312 7.140625 -9.15625 C 6.222656 -8.632812 5.507812 -8.097656 5 -7.546875 C 4.5 -6.992188 4.25 -6.34375 4.25 -5.59375 C 4.25 -4.625 4.59375 -3.832031 5.28125 -3.21875 C 5.976562 -2.601562 6.84375 -2.296875 7.875 -2.296875 Z M 7.875 -2.296875 "/></g></g></g><g fill="#8c52ff" fill-opacity="1"><g transform="translate(225.746282, 252.254002)"><g/></g></g><g fill="#8c52ff" fill-opacity="1"><g transform="translate(234.369301, 252.254002)"><g><path d="M 15.015625 0 L 11.421875 -5.9375 C 11.234375 -5.914062 10.9375 -5.90625 10.53125 -5.90625 L 5.875 -5.90625 L 5.875 0 L 2.578125 0 L 2.578125 -19.59375 L 10.53125 -19.59375 C 13.03125 -19.59375 14.96875 -19.007812 16.34375 -17.84375 C 17.726562 -16.675781 18.421875 -15.03125 18.421875 -12.90625 C 18.421875 -11.34375 18.070312 -10.019531 17.375 -8.9375 C 16.675781 -7.851562 15.671875 -7.054688 14.359375 -6.546875 L 18.765625 0 Z M 5.875 -8.875 L 10.53125 -8.875 C 13.695312 -8.875 15.28125 -10.191406 15.28125 -12.828125 C 15.28125 -15.359375 13.695312 -16.625 10.53125 -16.625 L 5.875 -16.625 Z M 5.875 -8.875 "/></g></g></g></svg>